<svg xmlns="http://www.w3.org/2000/svg" viewBox="0 0 469.34 70"><defs><style>.cls-1{fill:#2a2b2b;}</style></defs><g id="Layer_2" data-name="Layer 2"><g id="图层_1" data-name="图层 1"><path class="cls-1" d="M7.8,59.05A9,9,0,0,1,4.72,56a8.2,8.2,0,0,1-1.15-4.24V28.07a8.2,8.2,0,0,1,1.15-4.24A9,9,0,0,1,7.8,20.76,8.12,8.12,0,0,1,12,19.6H36.4a8.24,8.24,0,0,1,4.31,1.16,9,9,0,0,1,3.08,3.07,8.2,8.2,0,0,1,1.15,4.24V51.73A8.2,8.2,0,0,1,43.79,56a9,9,0,0,1-3.08,3.08A8.23,8.23,0,0,1,36.4,60.2H12A8.11,8.11,0,0,1,7.8,59.05ZM12,54.46H36.4a2.73,2.73,0,0,0,2.73-2.73V28.07a2.75,2.75,0,0,0-2.73-2.73H12a2.77,2.77,0,0,0-2.73,2.73V51.73A2.75,2.75,0,0,0,12,54.46Z" transform="translate(-3.57 -6.3)"/><path class="cls-1" d="M52.22,76.3V19.6h32.9a8.06,8.06,0,0,1,4.23,1.16,8.79,8.79,0,0,1,3.08,3.07,8.12,8.12,0,0,1,1.16,4.24V51.73A8.12,8.12,0,0,1,92.43,56a8.82,8.82,0,0,1-3.08,3.08,8,8,0,0,1-4.23,1.15H58V76.3Zm8.54-21.84H85.12a2.75,2.75,0,0,0,2.73-2.73V28.07a2.77,2.77,0,0,0-2.73-2.73H60.76a2.73,2.73,0,0,0-2,.81A2.55,2.55,0,0,0,58,28.07V51.73a2.58,2.58,0,0,0,.84,1.93A2.76,2.76,0,0,0,60.76,54.46Z" transform="translate(-3.57 -6.3)"/><path class="cls-1" d="M102.72,59.05A8.9,8.9,0,0,1,99.64,56a8.11,8.11,0,0,1-1.15-4.24V28.07a8.11,8.11,0,0,1,1.15-4.24,8.88,8.88,0,0,1,3.08-3.07A8.12,8.12,0,0,1,107,19.6h24.36a8.2,8.2,0,0,1,4.3,1.16,8.79,8.79,0,0,1,3.08,3.07,8.12,8.12,0,0,1,1.16,4.24v14.7H104.23v9A2.73,2.73,0,0,0,107,54.46h32.9V60.2H107A8.11,8.11,0,0,1,102.72,59.05Zm1.51-22h29.82v-9a2.77,2.77,0,0,0-2.73-2.73H107a2.75,2.75,0,0,0-2.73,2.73Z" transform="translate(-3.57 -6.3)"/><path class="cls-1" d="M147.14,60.2V19.6H180a8.06,8.06,0,0,1,4.23,1.16,8.88,8.88,0,0,1,3.08,3.07,8.12,8.12,0,0,1,1.16,4.24V60.2h-5.74V28.07a2.59,2.59,0,0,0-.81-1.92,2.62,2.62,0,0,0-1.92-.81H155.68a2.73,2.73,0,0,0-2,.81,2.55,2.55,0,0,0-.84,1.92V60.2Z" transform="translate(-3.57 -6.3)"/><path class="cls-1" d="M200,59.05a8.55,8.55,0,0,1-3-3.08,8.27,8.27,0,0,1-1.12-4.24V6.3h5.74V19.6H219.1v5.74H201.53V51.73a2.62,2.62,0,0,0,.8,1.93,2.66,2.66,0,0,0,1.93.8H219.1V60.2H204.26A8.23,8.23,0,0,1,200,59.05Z" transform="translate(-3.57 -6.3)"/><path class="cls-1" d="M228.58,59.05A8.9,8.9,0,0,1,225.5,56a8.11,8.11,0,0,1-1.15-4.24V28.07a8.11,8.11,0,0,1,1.15-4.24,8.88,8.88,0,0,1,3.08-3.07,8.09,8.09,0,0,1,4.24-1.16h24.36a8.2,8.2,0,0,1,4.3,1.16,8.88,8.88,0,0,1,3.08,3.07,8.12,8.12,0,0,1,1.16,4.24v14.7H230.09v9a2.62,2.62,0,0,0,.8,1.93,2.66,2.66,0,0,0,1.93.8h32.9V60.2h-32.9A8.08,8.08,0,0,1,228.58,59.05Zm1.51-22h29.82v-9a2.59,2.59,0,0,0-.81-1.92,2.62,2.62,0,0,0-1.92-.81H232.82a2.63,2.63,0,0,0-1.93.81,2.58,2.58,0,0,0-.8,1.92Z" transform="translate(-3.57 -6.3)"/><path class="cls-1" d="M272.51,60.2V28.07a8.11,8.11,0,0,1,1.15-4.24,8.88,8.88,0,0,1,3.08-3.07A8.09,8.09,0,0,1,281,19.6H303.8v5.74H281a2.63,2.63,0,0,0-1.93.81,2.58,2.58,0,0,0-.8,1.92V60.2Z" transform="translate(-3.57 -6.3)"/><path class="cls-1" d="M308.42,60.2V14.77a8.33,8.33,0,0,1,1.12-4.3,8.24,8.24,0,0,1,3-3.05,8.37,8.37,0,0,1,4.31-1.12h14.84V12H316.89a2.63,2.63,0,0,0-1.93.81,2.58,2.58,0,0,0-.8,1.92V19.6h17.57v5.74H314.16V60.2Z" transform="translate(-3.57 -6.3)"/><path class="cls-1" d="M345.3,60.2a8,8,0,0,1-4.23-1.15A8.9,8.9,0,0,1,338,56a8.12,8.12,0,0,1-1.16-4.24V37H372.4v-9a2.59,2.59,0,0,0-.81-1.92,2.62,2.62,0,0,0-1.92-.81H336.83V19.6h32.84a8.2,8.2,0,0,1,4.3,1.16,8.88,8.88,0,0,1,3.08,3.07,8.12,8.12,0,0,1,1.16,4.24V60.2Zm0-5.74h27.1V42.77H342.58v9a2.62,2.62,0,0,0,.8,1.93A2.65,2.65,0,0,0,345.3,54.46Z" transform="translate(-3.57 -6.3)"/><path class="cls-1" d="M388.88,59.05A8.9,8.9,0,0,1,385.8,56a8.12,8.12,0,0,1-1.16-4.24V28.07a8.12,8.12,0,0,1,1.16-4.24,8.88,8.88,0,0,1,3.08-3.07,8.06,8.06,0,0,1,4.23-1.16h32.76v5.74H393.11a2.62,2.62,0,0,0-1.92.81,2.59,2.59,0,0,0-.81,1.92V51.73a2.75,2.75,0,0,0,2.73,2.73H426V60.2h-32.9A8,8,0,0,1,388.88,59.05Z" transform="translate(-3.57 -6.3)"/><path class="cls-1" d="M435.78,59.05A8.9,8.9,0,0,1,432.7,56a8.12,8.12,0,0,1-1.16-4.24V28.07a8.12,8.12,0,0,1,1.16-4.24,8.88,8.88,0,0,1,3.08-3.07A8.06,8.06,0,0,1,440,19.6h24.36a8.21,8.21,0,0,1,4.31,1.16,8.88,8.88,0,0,1,3.08,3.07,8.11,8.11,0,0,1,1.15,4.24v14.7H437.28v9A2.75,2.75,0,0,0,440,54.46h32.9V60.2H440A8,8,0,0,1,435.78,59.05Zm1.5-22H467.1v-9a2.75,2.75,0,0,0-2.73-2.73H440a2.77,2.77,0,0,0-2.73,2.73Z" transform="translate(-3.57 -6.3)"/></g></g></svg>