<svg xmlns="http://www.w3.org/2000/svg" xmlns:xlink="http://www.w3.org/1999/xlink" version="1.1" width="2290.98" height="782.676" viewBox="0 0 2290.98 782.676">
<defs>
<clipPath id="clip_0">
<path transform="matrix(1,0,0,-1,0,782.676)" d="M0 782.676H2290.976V0H0Z"/>
</clipPath>
</defs>
<path transform="matrix(1,0,0,-1,34.9755,590.9157)" d="M0 0V311.946H59.332L176.338 172.418 293.152 311.946H352.931V0H300.227V239.154L176.338 91.404 52.003 238.708V0Z" fill="#ffffff"/>
<path transform="matrix(1,0,0,-1,0,782.676)" d="M435.257 443.024H486.814V191.75899H435.257ZM435.257 525.376H486.814V473.36399H435.257Z" fill="#ffffff"/>
<g clip-path="url(#clip_0)">
<path transform="matrix(1,0,0,-1,537.0956,590.9148)" d="M0 0V251.264H197.56C200.087 251.279 202.603 251.12 205.104 250.787 207.611 250.454 210.082 249.951 212.516 249.278 214.95 248.604 217.328 247.767 219.647 246.765 221.967 245.763 224.206 244.607 226.364 243.297 228.527 242.001 230.598 240.576 232.578 239.021 234.562 237.467 236.44 235.795 238.211 234.005 239.983 232.215 241.638 230.322 243.176 228.325 244.714 226.329 246.12 224.244 247.396 222.071 248.669 219.91 249.793 217.673 250.766 215.359 251.739 213.046 252.55 210.678 253.2 208.254 253.855 205.831 254.341 203.375 254.66 200.886 254.979 198.397 255.127 195.897 255.106 193.388V0H203.549V191.221C203.567 191.764 203.526 192.304 203.428 192.839 203.335 193.375 203.187 193.895 202.982 194.399 202.778 194.903 202.525 195.382 202.224 195.834 201.922 196.287 201.578 196.704 201.191 197.085 200.847 197.457 200.467 197.79 200.051 198.084 199.635 198.378 199.195 198.626 198.731 198.829 198.264 199.032 197.782 199.185 197.285 199.288 196.788 199.392 196.284 199.444 195.774 199.443H59.777C59.506 199.448 59.236 199.438 58.965 199.415 58.695 199.393 58.427 199.357 58.16 199.307 57.894 199.258 57.63 199.195 57.37 199.119 57.109 199.043 56.854 198.955 56.603 198.853 56.35 198.752 56.104 198.639 55.864 198.513 55.624 198.387 55.39 198.25 55.164 198.1 54.938 197.951 54.719 197.791 54.508 197.62 54.298 197.449 54.096 197.268 53.904 197.077 53.711 196.886 53.528 196.686 53.356 196.476 53.183 196.267 53.022 196.05 52.871 195.825 52.72 195.599 52.581 195.367 52.453 195.127 52.326 194.888 52.21 194.643 52.107 194.393 52.004 194.142 51.913 193.886 51.835 193.626 51.757 193.367 51.692 193.104 51.641 192.837 51.59 192.571 51.551 192.303 51.526 192.033 51.502 191.763 51.49 191.492 51.492 191.221V0Z" fill="#ffffff"/>
<path transform="matrix(1,0,0,-1,0,782.676)" d="M837.958 443.024H889.515V191.75899H837.958ZM837.958 525.376H889.515V473.36399H837.958Z" fill="#ffffff"/>
<path transform="matrix(1,0,0,-1,0,782.676)" d="M935.592 345.569H1110.656V294.003H935.592Z" fill="#ffffff"/>
<path transform="matrix(1,0,0,-1,1158.7059,590.9157)" d="M0 0V311.946H52.45V181.979H132.17L240.899 311.946H299.399V299.198L178.95 155.782 299.399 12.366V-.382H240.899L132.17 129.648H52.45V0Z" fill="#ffffff"/>
<path transform="matrix(1,0,0,-1,1675.0956,590.9157)" d="M0 0-180.729 311.946H-120.12L24.16 61.063 168.95 311.946H229.17L48.69 0Z" fill="#ffffff"/>
<path transform="matrix(1,0,0,-1,1938.0458,590.9201)" d="M0 0V311.95H59.399L176.34 172.42 292.9 311.95H352.93V0H300.48V239.16L176.34 91.41 52 238.71V0Z" fill="#ffffff"/>
<path transform="matrix(1,0,0,-1,58.7577,690.7072)" d="M0 0H1.703L15.328-6.812V-8.09C12.201-10.365 9.221-14.902 6.387-21.715 6.101-22.287 5.961-22.713 5.961-22.992-.572-35.486-8.516-46.836-17.883-57.055-26.398-67.273-35.912-75.649-46.41-82.176H-47.262C-48.965-81.038-51.24-79.621-54.074-77.918-56.063-76.787-57.48-75.936-58.332-75.363L-58.758-74.938C-36.338-62.45-18.734-42.864-5.961-16.18-2.841-11.07-.852-5.682 0 0" fill="#ffffff"/>
<path transform="matrix(1,0,0,-1,116.5106,728.176)" d="M0 0H25.547C34.063 0 42.578 .426 51.094 1.277 52.225 1.277 53.928 1.417 56.203 1.703 62.164 2.834 66.562 2.834 69.402 1.703 71.671 .565 72.809-.572 72.809-1.703 72.809-2.841 72.236-3.553 71.105-3.832 69.116-4.97 66.562-5.535 63.441-5.535H60.035C57.48-5.535 53.648-5.396 48.539-5.109 43.43-4.83 39.598-4.684 37.043-4.684H4.684C-3.267-4.684-9.367-5.682-13.625-7.664-14.477-7.664-15.188-7.385-15.754-6.812-16.892-5.682-18.169-3.406-19.586 0-20.437 1.131-21.01 1.982-21.289 2.555-21.289 2.834-21.436 3.26-21.715 3.832-22.287 4.397-22.566 5.109-22.566 5.961-22.287 5.961-22.001 6.101-21.715 6.387H-21.289C-20.724 6.387-20.158 5.961-19.586 5.109-18.734 4.537-18.169 4.111-17.883 3.832-14.477 .991-8.516-.286 0 0" fill="#ffffff"/>
<path transform="matrix(1,0,0,-1,220.2479,683.8947)" d="M0 0 15.328-.852C14.756-3.406 14.051-5.821 13.199-8.09V-8.941-35.766L18.734-29.805C26.678-33.497 34.768-39.032 43.004-46.41L43.43-47.262 35.766-57.906H34.914C28.102-51.094 20.863-45.133 13.199-40.023V-49.816C13.199-55.777 13.625-64.579 14.477-76.215 15.042-84.451 15.328-90.545 15.328-94.523H.852C1.417-84.305 1.703-72.809 1.703-60.035 1.703-49.251 1.557-33.357 1.277-12.348 1.277-8.09 .852-3.979 0 0" fill="#ffffff"/>
<path transform="matrix(1,0,0,-1,392.1102,689.42996)" d="M0 0C-.286 3.972-2.555 6.101-6.812 6.387-11.07 6.101-13.346 3.972-13.625 0-13.346-4.544-11.07-6.959-6.812-7.238-2.555-6.959-.286-4.544 0 0M-6.812 12.348C.852 11.775 4.963 7.664 5.535 0 5.249-7.95 1.131-12.068-6.812-12.348-14.477-11.782-18.595-7.664-19.16 0-18.595 7.664-14.477 11.775-6.812 12.348M-37.469-21.715-27.25-15.328C-14.763-27.25-4.258-40.596 4.258-55.352V-57.055L-6.387-63.867-7.238-63.441C-7.811-62.311-8.802-60.747-10.219-58.758-20.437-41.727-29.525-29.379-37.469-21.715M-70.254-16.18-56.629-22.566V-23.844C-58.618-25.268-60.747-28.102-63.016-32.359-63.302-33.211-63.588-33.783-63.867-34.063-72.669-47.688-82.322-57.906-92.82-64.719L-100.91-55.352C-85.017-43.15-75.084-30.091-71.105-16.18Z" fill="#ffffff"/>
<path transform="matrix(1,0,0,-1,474.5585,691.9846)" d="M0 0H.852L15.328-7.664V-8.941C11.35-11.496 8.09-16.892 5.535-25.121 .991-36.191-4.97-46.131-12.348-54.926-18.309-62.024-24.695-68.411-31.508-74.086-36.338-77.492-41.587-80.473-47.262-83.027-47.262-83.593-47.548-83.593-48.113-83.027-49.816-81.324-51.666-79.475-53.648-77.492-53.935-77.206-54.5-76.92-55.352-76.641-56.489-76.641-57.055-76.361-57.055-75.789-51.666-73.521-46.696-70.4-42.152-66.422-31.934-58.758-24.416-51.666-19.586-45.133-14.197-37.755-9.939-30.23-6.812-22.566-3.127-15.188-.852-7.664 0 0M-70.68-8.941-60.887-2.555C-52.943-10.505-45.984-19.446-40.023-29.379L-50.668-36.191H-51.52C-56.063-28.248-62.45-19.16-70.68-8.941" fill="#ffffff"/>
<path transform="matrix(1,0,0,-1,525.4989,698.37136)" d="M0 0H30.23C39.598 0 48.818 .14 57.906 .426V-41.301C57.906-44.707 58.046-49.677 58.332-56.203V-70.254H45.559V-65.996H13.199C4.397-65.996-3.553-66.143-10.645-66.422V-53.223C-5.535-53.509 0-53.648 5.961-53.648H20.012C28.527-53.648 37.043-53.509 45.559-53.223V-12.773H12.773 1.277C-4.118-13.06-8.09-13.199-10.645-13.199V.852C-6.959 .279-3.406 0 0 0" fill="#ffffff"/>
<path transform="matrix(1,0,0,-1,630.9393,719.6604)" d="M0 0H-.852C-7.099 6.812-13.911 13.053-21.289 18.734L-13.199 25.547H-11.922C-6.812 21.568-.286 15.894 7.664 8.516V7.664ZM58.758 11.922 63.867 .426V0C49.391-14.763 26.678-30.517-4.258-47.262L-6.812-48.539C-9.653-49.391-11.356-50.521-11.922-51.945H-13.199C-14.902-49.956-17.178-46.557-20.012-41.727-20.863-40.023-21.575-38.746-22.141-37.895V-37.043C-18.169-36.764-13.485-35.486-8.09-33.211 15.468-24.416 37.748-9.367 58.758 11.922" fill="#ffffff"/>
<path transform="matrix(1,0,0,-1,741.4891,680.4885)" d="M0 0 13.625-3.406V-4.258L10.645-7.664C10.358-8.516 9.793-9.939 8.941-11.922 8.369-14.197 7.804-15.754 7.238-16.605 13.479-15.754 19.16-14.337 24.27-12.348V-23.844C17.736-25.547 10.784-26.685 3.406-27.25 1.703-31.508-.426-35.626-2.98-39.598 2.129-37.329 6.101-36.191 8.941-36.191H10.645C11.496-36.191 12.913-36.478 14.902-37.043L15.754-37.469C17.457-38.32 19.16-39.884 20.863-42.152 22.846-44.707 23.983-47.548 24.27-50.668 26.824-49.537 29.232-48.539 31.508-47.688 32.359-47.408 33.637-46.982 35.34-46.41 38.746-45.279 41.301-44.281 43.004-43.43 43.569-43.15 44.135-42.725 44.707-42.152 45.838-41.021 46.689-40.596 47.262-40.875L56.203-51.094V-52.371C46.264-54.36 36.191-57.055 25.973-60.461 26.538-62.736 26.824-65.145 26.824-67.699V-70.68C26.824-72.104 26.538-74.512 25.973-77.918 25.687-79.621 25.547-80.898 25.547-81.75H14.902C14.902-80.619 15.042-79.056 15.328-77.066V-72.809-68.551-64.719C12.487-65.856 9.367-67.699 5.961-70.254 .565-73.946-1.277-77.918 .426-82.176 1.557-86.154 6.387-88.137 14.902-88.137H16.605C24.27-87.857 31.361-86.859 37.895-85.156L39.172-97.504C33.49-98.355 27.815-98.781 22.141-98.781H15.754C8.941-98.781 3.12-97.504-1.703-94.949-7.385-91.543-10.365-87.432-10.645-82.602V-80.898C-10.079-73.521-5.961-66.994 1.703-61.313 3.686-59.896 6.526-58.332 10.219-56.629 12.201-55.498 13.765-54.646 14.902-54.074 14.051-49.537 12.487-46.696 10.219-45.559 8.229-44.993 5.535-45.279 2.129-46.41-4.118-49.537-10.931-57.055-18.309-68.977-19.16-70.114-19.732-70.966-20.012-71.531L-30.656-66.848C-20.724-53.509-13.06-40.596-7.664-28.102H-12.348-20.012L-22.992-17.883V-17.031C-19.586-17.604-16.605-17.883-14.051-17.883H-8.516-3.406C-3.127-17.031-2.98-16.466-2.98-16.18-.998-11.643 0-7.099 0-2.555Z" fill="#ffffff"/>
<path transform="matrix(1,0,0,-1,889.5077,773.7346)" d="M0 0H-17.457L-47.262 41.727-64.719 24.27V0H-77.918V87.285H-64.719V40.875L-20.012 87.285H-2.555L-39.172 50.242Z" fill="#ffffff"/>
<path transform="matrix(1,0,0,-1,933.6356,773.7346)" d="M0 0H-14.902L-49.816 87.285H-35.34C-17.178 37.895-7.811 12.627-7.238 11.496H-6.812C-6.533 12.913 2.408 38.174 20.012 87.285H34.914Z" fill="#ffffff"/>
<path transform="matrix(1,0,0,-1,1009.6971,773.7346)" d="M0 0-27.25 76.641H-27.676V0H-40.449V87.285H-18.734L5.961 14.477H6.387L30.23 87.285H52.371V0H39.172V76.641H38.746C37.043 70.107 28.381 44.561 12.773 0Z" fill="#ffffff"/>
<path transform="matrix(1,0,0,-1,1098.1063,698.37136)" d="M0 0H30.23C39.598 0 48.818 .14 57.906 .426V-41.301C57.906-44.707 58.046-49.677 58.332-56.203V-70.254H45.559V-65.996H13.199C4.397-65.996-3.553-66.143-10.645-66.422V-53.223C-5.535-53.509 0-53.648 5.961-53.648H20.012C28.527-53.648 37.043-53.509 45.559-53.223V-12.773H12.773 1.277C-4.118-13.06-8.09-13.199-10.645-13.199V.852C-6.959 .279-3.406 0 0 0" fill="#ffffff"/>
<path transform="matrix(1,0,0,-1,1203.5468,719.6604)" d="M0 0H-.852C-7.099 6.812-13.911 13.053-21.289 18.734L-13.199 25.547H-11.922C-6.812 21.568-.286 15.894 7.664 8.516V7.664ZM58.758 11.922 63.867 .426V0C49.391-14.763 26.678-30.517-4.258-47.262L-6.812-48.539C-9.653-49.391-11.356-50.521-11.922-51.945H-13.199C-14.902-49.956-17.178-46.557-20.012-41.727-20.863-40.023-21.575-38.746-22.141-37.895V-37.043C-18.169-36.764-13.485-35.486-8.09-33.211 15.468-24.416 37.748-9.367 58.758 11.922" fill="#ffffff"/>
<path transform="matrix(1,0,0,-1,1354.5468,691.9846)" d="M0 0H.852L15.328-7.664V-8.941C11.35-11.496 8.09-16.892 5.535-25.121 .991-36.191-4.97-46.131-12.348-54.926-18.309-62.024-24.695-68.411-31.508-74.086-36.338-77.492-41.587-80.473-47.262-83.027-47.262-83.593-47.548-83.593-48.113-83.027-49.816-81.324-51.666-79.475-53.648-77.492-53.935-77.206-54.5-76.92-55.352-76.641-56.489-76.641-57.055-76.361-57.055-75.789-51.666-73.521-46.696-70.4-42.152-66.422-31.934-58.758-24.416-51.666-19.586-45.133-14.197-37.755-9.939-30.23-6.812-22.566-3.127-15.188-.852-7.664 0 0M-70.68-8.941-60.887-2.555C-52.943-10.505-45.984-19.446-40.023-29.379L-50.668-36.191H-51.52C-56.063-28.248-62.45-19.16-70.68-8.941" fill="#ffffff"/>
<path transform="matrix(1,0,0,-1,1406.3378,728.176)" d="M0 0H25.547C34.063 0 42.578 .426 51.094 1.277 52.225 1.277 53.928 1.417 56.203 1.703 62.164 2.834 66.562 2.834 69.402 1.703 71.671 .565 72.809-.572 72.809-1.703 72.809-2.841 72.236-3.553 71.105-3.832 69.116-4.97 66.562-5.535 63.441-5.535H60.035C57.48-5.535 53.648-5.396 48.539-5.109 43.43-4.83 39.598-4.684 37.043-4.684H4.684C-3.267-4.684-9.367-5.682-13.625-7.664-14.477-7.664-15.188-7.385-15.754-6.812-16.892-5.682-18.169-3.406-19.586 0-20.437 1.131-21.01 1.982-21.289 2.555-21.289 2.834-21.436 3.26-21.715 3.832-22.287 4.397-22.566 5.109-22.566 5.961-22.287 5.961-22.001 6.101-21.715 6.387H-21.289C-20.724 6.387-20.158 5.961-19.586 5.109-18.734 4.537-18.169 4.111-17.883 3.832-14.477 .991-8.516-.286 0 0" fill="#ffffff"/>
<path transform="matrix(1,0,0,-1,1542.0097,701.77767)" d="M0 0V-47.262C0-47.834 .14-48.113 .426-48.113 8.09-45.279 18.022-38.467 30.23-27.676 33.064-25.121 35.193-23.278 36.617-22.141L42.152-31.934C34.202-40.735 22.28-49.816 6.387-59.184 5.535-59.756 4.397-60.461 2.98-61.313-.998-63.302-3.406-65.145-4.258-66.848-5.961-66.848-7.238-66.282-8.09-65.145-8.376-64.579-8.941-63.867-9.793-63.016-10.365-62.45-11.643-60.887-13.625-58.332-13.911-58.053-13.911-57.627-13.625-57.055-12.208-51.945-11.496-46.696-11.496-41.301V-2.129C-11.496 .991-11.643 4.258-11.922 7.664-10.505 7.664-8.376 7.518-5.535 7.238-2.415 7.238-.146 7.092 1.277 6.812 1.277 5.961 1.131 4.823 .852 3.406 .279 1.982 0 .852 0 0M-39.598 5.109H-38.32-31.934C-29.1 4.823-26.971 4.684-25.547 4.684V1.277C-25.833-.426-25.973-1.703-25.973-2.555V-7.238C-25.973-9.793-26.259-13.485-26.824-18.309-27.11-20.863-27.25-22.713-27.25-23.844V-24.695C-28.388-31.229-29.525-36.052-30.656-39.172-34.635-50.814-41.587-60.035-51.52-66.848-51.52-67.127-51.806-67.127-52.371-66.848-55.212-64.579-58.479-62.45-62.164-60.461L-62.59-59.609C-53.795-54.786-47.548-48.399-43.855-40.449-39.884-32.785-37.895-23.564-37.895-12.773V-8.941C-37.895-3.267-38.467 1.417-39.598 5.109" fill="#ffffff"/>
<path transform="matrix(1,0,0,-1,1650.0048,696.6682)" d="M0 0H4.684C10.358 0 15.894-.286 21.289-.852V-11.922C19.3-11.922 16.605-11.782 13.199-11.496 9.793-11.217 7.238-11.07 5.535-11.07H.852C-1.703-11.07-5.682-11.496-11.07-12.348-15.9-13.199-19.586-13.625-22.141-13.625L-22.992-2.129C-20.724-2.129-17.457-1.85-13.199-1.277-7.238-.426-2.841 0 0 0M-.426-58.758H3.406C11.07-58.758 19.014-57.627 27.25-55.352L27.676-66.848C21.994-68.837 15.468-69.828 8.09-69.828H3.406C-9.939-69.828-20.012-66.708-26.824-60.461-28.813-58.479-29.951-56.775-30.23-55.352L-22.566-50.668C-17.457-56.063-10.079-58.758-.426-58.758M-54.074 9.367-39.172 4.684C-39.458 3.26-40.17 1.417-41.301-.852-41.873-2.275-42.299-3.406-42.578-4.258-47.122-15.049-49.391-26.259-49.391-37.895V-41.301C-49.391-49.251-47.974-55.777-45.133-60.887H-44.707C-44.142-59.756-43.43-58.192-42.578-56.203-41.447-54.221-40.735-52.797-40.449-51.945L-35.766-52.797C-36.052-54.221-36.478-56.203-37.043-58.758-38.467-65.005-39.172-69.549-39.172-72.383V-74.938L-49.391-77.066C-52.518-73.66-55.072-68.125-57.055-60.461-58.479-54.786-59.184-47.548-59.184-38.746V-34.063C-59.184-24.981-58.053-15.9-55.777-6.812-54.646-1.989-54.074 2.694-54.074 7.238Z" fill="#ffffff"/>
<path transform="matrix(1,0,0,-1,1780.1405,732.8596)" d="M0 0C-2.275 2.269-5.535 5.535-9.793 9.793-14.337 14.051-17.743 17.311-20.012 19.586L-13.199 26.398C-8.662 22.706-2.129 16.885 6.387 8.941 6.952 8.369 7.378 7.943 7.664 7.664ZM-23.844-9.367H-61.738C-56.629-15.328-50.528-20.584-43.43-25.121-35.486-20.298-28.953-15.049-23.844-9.367M-92.82 31.934V41.727H-47.688C-48.825 45.698-50.103 49.391-51.52 52.797L-38.746 54.074-34.914 41.727H5.961V31.934H-25.547V5.961H-36.617V31.934H-50.668V9.367H-61.313V31.934ZM-89.414-48.539C-90.266-46.836-92.115-43.43-94.949-38.32-76.787-36.045-63.441-33.357-54.926-30.23-60.035-25.973-64.865-21.01-69.402-15.328-73.946-19.872-79.056-24.13-84.73-28.102-85.303-27.536-86.154-26.545-87.285-25.121-89.561-22.853-91.117-21.01-91.969-19.586-79.195-11.07-69.688-1.989-63.441 7.664L-51.52 6.387C-51.806 5.814-52.518 4.823-53.648 3.406-54.5 1.982-55.212 .852-55.777 0H-10.219V-9.793C-17.031-18.595-24.416-25.407-32.359-30.23-22.992-33.637-9.653-35.766 7.664-36.617 5.109-41.727 3.26-45.272 2.129-47.262-16.892-45.272-32.22-41.44-43.855-35.766-56.063-41.154-71.252-45.412-89.414-48.539M-88.137 .426C-88.988 1.843-90.552 3.686-92.82 5.961-93.672 7.092-94.384 7.943-94.949 8.516-87.571 13.904-80.759 20.012-74.512 26.824L-67.699 19.16C-72.243 14.616-79.056 8.369-88.137 .426" fill="#ffffff"/>
<path transform="matrix(1,0,0,-1,1812.3466,731.1565)" d="M0 0V-8.516H50.242L51.52-7.664V0ZM0 8.09H51.52V16.605999H0ZM0 24.27H51.52V32.786H0ZM28.527-48.113C28.527-47.827 28.381-47.115 28.102-45.984 28.102-44.281 27.676-41.44 26.824-37.469 31.647-37.748 36.896-37.895 42.578-37.895 48.818-38.174 51.799-35.912 51.52-31.082V-19.586C33.351-30.656 9.793-40.449-19.16-48.965-20.298-46.124-22.141-42.718-24.695-38.746-.572-33.071 19.014-26.119 34.063-17.883H-23.844V-8.516H-11.07V42.152H12.773L16.18 52.371 28.953 51.52C28.667 50.668 28.102 49.104 27.25 46.836 26.398 44.847 25.687 43.283 25.121 42.152H62.164V-.426L72.383 7.238 78.344-1.277C76.641-2.415 73.939-4.258 70.254-6.812 66.848-9.367 64.146-11.356 62.164-12.773V-33.211C62.729-43.144 57.62-48.113 46.836-48.113Z" fill="#ffffff"/>
<path transform="matrix(1,0,0,-1,1966.7518,699.64877)" d="M0 0 .852-.426 3.406-8.941V-10.645C-1.138-12.348-5.961-13.771-11.07-14.902-3.979-27.396 2.98-36.764 9.793-43.004V-43.855L0-51.52H-1.277C-5.535-48.113-10.505-45.705-16.18-44.281-20.724-42.864-25.407-42.152-30.23-42.152H-31.934C-35.912-42.152-39.744-42.864-43.43-44.281-47.408-46.836-49.537-49.816-49.816-53.223-49.816-54.926-49.251-56.35-48.113-57.48-46.131-59.756-43.576-61.459-40.449-62.59-36.764-64.293-31.654-65.145-25.121-65.145H-20.012-12.773-12.348L-13.625-76.215H-20.863C-30.23-76.215-38.746-74.365-46.41-70.68-55.212-67.273-59.756-61.459-60.035-53.223V-51.52C-59.756-44.993-56.915-40.023-51.52-36.617-47.262-34.349-42.152-33.211-36.191-33.211H-30.656C-21.575-33.211-14.197-34.774-8.516-37.895L-8.09-36.617C-12.92-30.656-17.457-24.27-21.715-17.457-32.506-19.732-43.43-21.149-54.5-21.715L-58.758-11.922-58.332-11.07C-56.35-11.356-54.36-11.496-52.371-11.496H-50.668C-42.438-11.496-34.349-10.505-26.398-8.516-26.685-8.236-26.971-7.811-27.25-7.238-27.536-6.673-27.822-6.247-28.102-5.961-30.942 0-34.063 5.814-37.469 11.496V12.348C-32.932 12.913-28.527 13.625-24.27 14.477-23.704 8.795-21.289 1.843-17.031-6.387-10.791-4.684-5.109-2.555 0 0" fill="#ffffff"/>
<path transform="matrix(1,0,0,-1,1993.8485,718.38308)" d="M0 0 .852 .852C3.12 .565 5.249 .426 7.238 .426H9.793C12.627 .426 15.328 .565 17.883 .852 21.854 1.417 24.975 1.703 27.25 1.703V10.645C27.529 15.468 26.824 20.012 25.121 24.27L39.598 23.418C39.877 22.846 39.737 21.994 39.172 20.863L38.746 20.437C38.174 17.597 37.895 14.616 37.895 11.496V2.98C41.015 2.98 42.857 3.12 43.43 3.406 45.698 3.686 49.244 3.972 54.074 4.258 58.898 4.823 62.443 5.109 64.719 5.109V8.09C64.998 10.924 65.145 12.913 65.145 14.051V21.289C65.145 24.409 64.572 27.676 63.442 31.082H64.719C68.404 30.51 72.383 30.23 76.641 30.23L77.067 29.805C77.067 27.815 76.92 23.983 76.641 18.309 76.068 10.358 75.789 6.24 75.789 5.961 79.475 5.961 82.029 6.101 83.453 6.387 88.563 6.387 93.672 6.666 98.781 7.238L100.484-5.535C96.792-4.404 92.96-3.832 88.988-3.832H83.027C81.324-3.832 78.623-3.979 74.938-4.258V-7.664C74.365-14.763 73.374-20.012 71.957-23.418 70.254-28.527 67.274-31.082 63.016-31.082H61.738C59.749-31.082 57.906-30.803 56.203-30.23V-20.012H58.332C60.601-20.012 62.018-18.169 62.59-14.477 63.442-11.922 64.007-9.228 64.293-6.387V-5.109C57.76-5.396 51.945-5.682 46.836-5.961 44.847-6.247 41.866-6.533 37.895-6.812 37.895-19.021 38.174-27.822 38.746-33.211 39.025-39.172 41.58-42.299 46.41-42.578H64.293C70.819-42.578 77.492-41.873 84.305-40.449V-51.945C82.602-51.945 80.187-52.085 77.067-52.371 70.819-52.937 65.996-53.223 62.59-53.223H57.055C48.818-53.502 42.857-52.797 39.172-51.094 33.211-49.677 29.658-45.279 28.527-37.895 27.676-35.061 27.25-30.377 27.25-23.844V-7.664C23.558-7.95 16.885-9.088 7.238-11.07 6.387-11.643 5.109-11.922 3.406-11.922Z" fill="#ffffff"/>
<path transform="matrix(1,0,0,-1,2130.7969,752.87136)" d="M0 0H-1.277C-8.376-.572-12.208-3.127-12.773-7.664-12.208-12.208-8.662-14.902-2.129-15.754H0C4.823-15.754 8.229-14.763 10.219-12.773 12.773-10.791 14.19-7.95 14.477-4.258V-2.555C8.516-.852 3.686 0 0 0M24.27 66.848 25.121 65.57C23.418 62.443 22.566 57.906 22.566 51.945V47.262 45.133C35.054 45.984 44.986 47.967 52.371 51.094L53.223 37.043C43.855 35.619 34.488 34.914 25.121 34.914H22.992C22.992 33.776 23.132 32.213 23.418 30.23V26.398C23.132 30.084 23.697 22.846 25.121 4.684 33.916 1.557 43.709-3.979 54.5-11.922L47.262-20.863H46.41C45.559-20.012 43.995-18.734 41.727-17.031 40.589-16.18 39.737-15.754 39.172-15.754 34.628-12.634 29.944-9.793 25.121-7.238 23.983-12.068 22.566-15.188 20.863-16.605 17.171-20.577 13.199-23.271 8.941-24.695 6.666-24.975 3.972-25.121 .852-25.121H-.426C-5.821-25.121-10.505-23.558-14.477-20.437-20.158-16.745-22.992-12.634-22.992-8.09V-6.387C-22.713-2.129-20.012 1.843-14.902 5.535-11.496 7.804-6.812 8.941-.852 8.941H2.98C6.952 8.941 10.784 8.516 14.477 7.664 14.19 14.477 13.765 21.289 13.199 28.102 12.627 35.479 12.348 41.44 12.348 45.984V54.5C12.348 55.917 12.201 58.046 11.922 60.887 11.636 64.007 11.496 66.422 11.496 68.125 15.754 67.839 20.012 67.413 24.27 66.848" fill="#ffffff"/>
<path transform="matrix(1,0,0,-1,2237.5147,690.7072)" d="M0 0 4.258 10.219H4.684C15.754 5.675 25.687 2.694 34.488 1.277L34.914 .852C34.628 0 34.342-1.277 34.063-2.98 33.211-6.107 32.639-8.516 32.359-10.219L31.934-10.645C30.23-10.645 27.529-10.079 23.844-8.941 23.558-8.662 23.271-8.516 22.992-8.516 19.014-7.385 13.339-5.682 5.961-3.406 3.686-2.555 1.843-1.85 .426-1.277ZM-17.883-27.25H-14.902C-12.068-27.25-8.09-26.398-2.98-24.695 .705-23.844 4.397-22.853 8.09-21.715 12.348-20.298 16.885-19.586 21.715-19.586H22.992C29.519-19.872 34.202-22.427 37.043-27.25 39.598-30.942 40.875-35.626 40.875-41.301V-45.133C40.589-62.736 32.785-78.058 17.457-91.117 17.171-91.117 16.745-91.257 16.18-91.543 15.607-91.822 15.182-91.969 14.902-91.969H14.477L14.051-91.543C11.775-89.554 8.941-87.425 5.535-85.156V-84.305C20.863-74.086 28.807-60.321 29.379-43.004V-40.875C29.093-33.497 25.973-29.665 20.012-29.379H18.309C15.754-29.379 12.062-30.517 7.238-32.785 6.666-33.071 6.24-33.211 5.961-33.211 1.703-34.635-2.129-36.617-5.535-39.172L-6.387-40.023C-7.524-40.875-8.376-41.161-8.941-40.875L-17.883-28.527Z" fill="#ffffff"/>
<path transform="matrix(1,0,0,-1,1552.3456,107.02765)" d="M0 0H103.505V31.208C103.505 35.109 100.71 37.918 100.71 37.918 97.93 40.713 94.027 40.713 94.027 40.713H9.476C5.604 40.713 2.795 37.918 2.795 37.918 0 35.109 0 31.208 0 31.208ZM9.476-80.695C1.469-80.695-5.225-76.678-5.225-76.678-11.892-72.645-15.908-65.951-15.908-65.951-19.911-59.241-19.911-51.191-19.911-51.191V31.208C-19.911 39.258-15.908 45.952-15.908 45.952-11.892 52.662-5.225 56.679-5.225 56.679 1.469 60.712 9.476 60.712 9.476 60.712H94.027C102.297 60.712 108.977 56.679 108.977 56.679 115.657 52.662 119.66 45.952 119.66 45.952 123.677 39.258 123.677 31.208 123.677 31.208V-19.983H0V-51.191C0-55.092 2.795-57.901 2.795-57.901 5.604-60.709 9.476-60.709 9.476-60.709H123.677V-80.695ZM-159.383-80.695C-167.387-80.695-174.083-76.678-174.083-76.678-180.763-72.645-184.767-65.951-184.767-65.951-188.783-59.241-188.783-51.191-188.783-51.191V31.208C-188.783 39.258-184.767 45.952-184.767 45.952-180.763 52.662-174.083 56.679-174.083 56.679-167.387 60.712-159.383 60.712-159.383 60.712H-45.661V40.713H-159.383C-163.269 40.713-166.063 37.918-166.063 37.918-168.857 35.109-168.857 31.208-168.857 31.208V-51.191C-168.857-55.092-166.063-57.901-166.063-57.901-163.269-60.709-159.383-60.709-159.383-60.709H-45.195V-80.695ZM-327.759-60.709H-233.716V-19.983H-337.234V-51.191C-337.234-55.092-334.439-57.901-334.439-57.901-331.645-60.709-327.759-60.709-327.759-60.709M-327.759-80.695C-335.779-80.695-342.459-76.678-342.459-76.678-349.142-72.645-353.145-65.951-353.145-65.951-357.161-59.241-357.161-51.191-357.161-51.191V0H-233.716V31.208C-233.716 35.109-236.526 37.918-236.526 37.918-239.305 40.713-243.192 40.713-243.192 40.713H-357.161V60.712H-243.192C-234.94 60.712-228.258 56.679-228.258 56.679-221.577 52.662-217.574 45.952-217.574 45.952-213.558 39.258-213.558 31.208-213.558 31.208V-80.695ZM-455.803-80.695V77.524C-455.803 85.821-451.918 92.515-451.918 92.515-448.03 99.225-441.336 103.126-441.336 103.126-434.653 107.028-426.4 107.028-426.4 107.028H-374.89V87.043H-426.4C-430.288 87.043-433.083 84.234-433.083 84.234-435.878 81.423-435.878 77.524-435.878 77.524V60.712H-374.89V40.713H-435.878V-80.695ZM-580.441-80.695V31.208C-580.441 39.258-576.424 45.952-576.424 45.952-572.421 52.662-565.741 56.679-565.741 56.679-559.059 60.712-551.039 60.712-551.039 60.712H-471.829V40.713H-551.039C-554.927 40.713-557.721 37.918-557.721 37.918-560.516 35.109-560.516 31.208-560.516 31.208V-80.695ZM-728.892 0H-625.388V31.208C-625.388 35.109-628.183 37.918-628.183 37.918-630.977 40.713-634.864 40.713-634.864 40.713H-719.417C-723.303 40.713-726.098 37.918-726.098 37.918-728.892 35.109-728.892 31.208-728.892 31.208ZM-719.417-80.695C-727.437-80.695-734.117-76.678-734.117-76.678-740.8-72.645-744.801-65.951-744.801-65.951-748.819-59.241-748.819-51.191-748.819-51.191V31.208C-748.819 39.258-744.801 45.952-744.801 45.952-740.8 52.662-734.117 56.679-734.117 56.679-727.437 60.712-719.417 60.712-719.417 60.712H-634.864C-626.596 60.712-619.916 56.679-619.916 56.679-613.235 52.662-609.232 45.952-609.232 45.952-605.229 39.258-605.229 31.208-605.229 31.208V-19.983H-728.892V-51.191C-728.892-55.092-726.098-57.901-726.098-57.901-723.303-60.709-719.417-60.709-719.417-60.709H-605.229V-80.695ZM-818.538-80.695C-826.807-80.695-833.487-76.678-833.487-76.678-840.167-72.645-844.056-65.951-844.056-65.951-847.94-59.241-847.94-51.191-847.94-51.191V107.028H-828.016V60.712H-767.043V40.713H-828.016V-51.191C-828.016-55.092-825.234-57.901-825.234-57.901-822.439-60.709-818.538-60.709-818.538-60.709H-767.043V-80.695ZM-1016.812-80.695V60.712H-902.611C-894.591 60.712-887.911 56.679-887.911 56.679-881.229 52.662-877.228 45.952-877.228 45.952-873.209 39.258-873.209 31.208-873.209 31.208V-80.695H-893.136V31.208C-893.136 35.109-895.931 37.918-895.931 37.918-898.726 40.713-902.611 40.713-902.611 40.713H-987.163C-991.051 40.713-993.961 37.918-993.961 37.918-996.888 35.109-996.888 31.208-996.888 31.208V-80.695ZM-1165.745 0H-1062.241V31.208C-1062.241 35.109-1065.036 37.918-1065.036 37.918-1067.83 40.713-1071.716 40.713-1071.716 40.713H-1156.269C-1160.156 40.713-1162.951 37.918-1162.951 37.918-1165.745 35.109-1165.745 31.208-1165.745 31.208ZM-1156.269-80.695C-1164.288-80.695-1170.971-76.678-1170.971-76.678-1177.65-72.645-1181.654-65.951-1181.654-65.951-1185.671-59.241-1185.671-51.191-1185.671-51.191V31.208C-1185.671 39.258-1181.654 45.952-1181.654 45.952-1177.65 52.662-1170.971 56.679-1170.971 56.679-1164.288 60.712-1156.269 60.712-1156.269 60.712H-1071.716C-1063.449 60.712-1056.767 56.679-1056.767 56.679-1050.087 52.662-1046.084 45.952-1046.084 45.952-1042.08 39.258-1042.08 31.208-1042.08 31.208V-19.983H-1165.745V-51.191C-1165.745-55.092-1162.951-57.901-1162.951-57.901-1160.156-60.709-1156.269-60.709-1156.269-60.709H-1042.08V-80.695ZM-1316.627-60.709H-1232.074C-1228.187-60.709-1225.392-57.901-1225.392-57.901-1222.598-55.092-1222.598-51.191-1222.598-51.191V31.208C-1222.598 35.109-1225.392 37.918-1225.392 37.918-1228.187 40.713-1232.074 40.713-1232.074 40.713H-1316.627C-1320.513 40.713-1323.423 37.918-1323.423 37.918-1326.349 35.109-1326.349 31.208-1326.349 31.208V-51.191C-1326.349-55.092-1323.423-57.901-1323.423-57.901-1320.513-60.709-1316.627-60.709-1316.627-60.709M-1346.26-136.762V60.712H-1232.074C-1224.055 60.712-1217.372 56.679-1217.372 56.679-1210.692 52.662-1206.688 45.952-1206.688 45.952-1202.672 39.258-1202.672 31.208-1202.672 31.208V-51.191C-1202.672-59.241-1206.688-65.951-1206.688-65.951-1210.692-72.645-1217.372-76.678-1217.372-76.678-1224.055-80.695-1232.074-80.695-1232.074-80.695H-1326.349V-136.762ZM-1485.731-60.709H-1401.18C-1397.292-60.709-1394.497-57.901-1394.497-57.901-1391.702-55.092-1391.702-51.191-1391.702-51.191V31.208C-1391.702 35.109-1394.497 37.918-1394.497 37.918-1397.292 40.713-1401.18 40.713-1401.18 40.713H-1485.731C-1489.617 40.713-1492.412 37.918-1492.412 37.918-1495.207 35.109-1495.207 31.208-1495.207 31.208V-51.191C-1495.207-55.092-1492.412-57.901-1492.412-57.901-1489.617-60.709-1485.731-60.709-1485.731-60.709M-1485.731-80.695C-1493.752-80.695-1500.432-76.678-1500.432-76.678-1507.112-72.645-1511.115-65.951-1511.115-65.951-1515.134-59.241-1515.134-51.191-1515.134-51.191V31.208C-1515.134 39.258-1511.115 45.952-1511.115 45.952-1507.112 52.662-1500.432 56.679-1500.432 56.679-1493.752 60.712-1485.731 60.712-1485.731 60.712H-1401.18C-1392.91 60.712-1386.23 56.679-1386.23 56.679-1379.55 52.662-1375.547 45.952-1375.547 45.952-1371.544 39.258-1371.544 31.208-1371.544 31.208V-51.191C-1371.544-59.241-1375.547-65.951-1375.547-65.951-1379.55-72.645-1386.23-76.678-1386.23-76.678-1392.91-80.695-1401.18-80.695-1401.18-80.695Z" fill="#ffffff" fill-rule="evenodd"/>
</g>
</svg>
